<?xml version="1.0" encoding="UTF-8" standalone="no"?>
<svg
   enable-background="new"
   viewBox="0 0 42.080112 40.939156"
   version="1.1"
   id="svg4"
   sodipodi:docname="pi-web-solution-icon.svg"
   width="42.080112"
   height="40.939156"
   inkscape:version="1.4 (86a8ad7, 2024-10-11)"
   xmlns:inkscape="http://www.inkscape.org/namespaces/inkscape"
   xmlns:sodipodi="http://sodipodi.sourceforge.net/DTD/sodipodi-0.dtd"
   xmlns="http://www.w3.org/2000/svg"
   xmlns:svg="http://www.w3.org/2000/svg">
  <sodipodi:namedview
     id="namedview4"
     pagecolor="#ffffff"
     bordercolor="#111111"
     borderopacity="1"
     inkscape:showpageshadow="0"
     inkscape:pageopacity="0"
     inkscape:pagecheckerboard="1"
     inkscape:deskcolor="#d1d1d1"
     inkscape:zoom="6.9936525"
     inkscape:cx="65.344968"
     inkscape:cy="31.671576"
     inkscape:window-width="2560"
     inkscape:window-height="1406"
     inkscape:window-x="-11"
     inkscape:window-y="-11"
     inkscape:window-maximized="1"
     inkscape:current-layer="svg4" />
  <defs
     id="defs2">
    <filter
       id="a"
       color-interpolation-filters="sRGB"
       x="-0.052401592"
       y="-0.052460228"
       width="1.1484712"
       height="1.118582">
      <feFlood
         flood-color="#000"
         flood-opacity=".5"
         result="flood"
         id="feFlood1" />
      <feComposite
         in="flood"
         in2="SourceGraphic"
         operator="in"
         result="composite1"
         id="feComposite1" />
      <feGaussianBlur
         in="composite1"
         result="blur"
         stdDeviation=".8"
         id="feGaussianBlur1" />
      <feOffset
         dx="1.6"
         dy=".5"
         result="offset"
         id="feOffset1" />
      <feComposite
         in="SourceGraphic"
         in2="offset"
         result="composite2"
         id="feComposite2" />
    </filter>
  </defs>
  <g
     filter="url(#a)"
     transform="translate(-18.314872,-223.76744)"
     id="g4">
    <path
       fill="#ee6443"
       fill-rule="evenodd"
       d="M 52.8,225.7 C 49.3,225.7 47.4,233.7 41.6,234.4 36.5,235 25.4,223.1 21.5,227.1 17,231.6 27.9,240.5 27.7,246.4 27.5,252.8 16.6,256.2 21.5,261.1 26.5,266.1 33.2,253.7 39.8,253.4 45.5,253 51.1,265.4 55.5,261.1 59.8,256.8 49.1,251.3 49.5,245.8 49.9,239.1 60.6,232.2 55.5,227.1 54.5,226.1 53.6,225.6 52.8,225.7 Z M 46.2,236.9 V 239.3 L 42.7,239.1 C 42.4,241.6 42.2,243.9 42.3,246.4 42.4,247.1 42.7,247.6 43.1,247.8 43.6,248.1 44.1,248.2 44.7,248 45.1,247.9 45.4,247.6 45.6,247.2 L 45.7,246.6 H 46.2 L 45.9,247.8 C 45.7,248.6 45.4,249.2 44.9,249.7 44.6,250 44.2,250.3 43.8,250.4 H 42.8 C 42.3,250.4 41.8,250.1 41.3,249.8 A 3.9,3.9 0 0 1 40.1,247.1 V 239 H 38.4 C 38.6,239.2 38.4,240.5 38.2,243.3 38,246.2 37.2,248.3 36.6,249.2 36.1,250 35.8,250.2 35.5,250.4 H 34.6 C 34,250.2 33.7,249.7 33.8,249.1 33.8,248.7 34,248.4 34.6,247.5 35.3,246.5 35.6,245.8 35.9,244.1 L 36.1,241.1 36.3,238.9 H 36 C 35.2,238.9 34.6,239 34.1,239.3 L 32.9,240.7 32.8,241 H 32.4 V 240.8 C 32.4,240.5 32.7,240 32.8,239.8 33.1,238.8 33.5,238.3 34.1,237.8 34.6,237.2 34.9,237.1 35.7,237 L 36.9,236.9 Z"
       paint-order="markers fill stroke"
       id="path4" />
  </g>
</svg>
