<?xml version="1.0" encoding="UTF-8" standalone="no"?>
<svg
   viewBox="0 0 122.5 122.5"
   version="1.1"
   id="svg3"
   sodipodi:docname="wordpress_logo.svg"
   inkscape:version="1.4 (86a8ad7, 2024-10-11)"
   xmlns:inkscape="http://www.inkscape.org/namespaces/inkscape"
   xmlns:sodipodi="http://sodipodi.sourceforge.net/DTD/sodipodi-0.dtd"
   xmlns="http://www.w3.org/2000/svg"
   xmlns:svg="http://www.w3.org/2000/svg">
  <defs
     id="defs3" />
  <sodipodi:namedview
     id="namedview3"
     pagecolor="#ffffff"
     bordercolor="#111111"
     borderopacity="1"
     inkscape:showpageshadow="0"
     inkscape:pageopacity="0"
     inkscape:pagecheckerboard="1"
     inkscape:deskcolor="#d1d1d1"
     inkscape:zoom="9.7061224"
     inkscape:cx="61.25"
     inkscape:cy="61.25"
     inkscape:window-width="2560"
     inkscape:window-height="1406"
     inkscape:window-x="-11"
     inkscape:window-y="-11"
     inkscape:window-maximized="1"
     inkscape:current-layer="svg3" />
  <circle
     style="fill:#ffffff;stroke:#000000;stroke-width:0;stroke-linecap:square;stroke-linejoin:round"
     id="path4"
     cx="61.408039"
     cy="60.895802"
     r="59.229443" />
  <g
     fill="#21759b"
     id="g3">
    <path
       d="M8.7 61.3a52.7 52.7 0 0 0 29.6 47.3l-25-68.7c-3 6.5-4.6 13.7-4.6 21.4zm88-2.7c0-6.5-2.3-11-4.3-14.5-2.7-4.3-5.2-8-5.2-12.3 0-4.8 3.7-9.3 8.9-9.3h.7a52.4 52.4 0 0 0-79.4 9.9h3.3c5.5 0 14-.6 14-.6 2.9-.2 3.2 4 .4 4.3 0 0-2.9.4-6 .5l19.1 57L59.7 59l-8.2-22.5c-2.8-.1-5.5-.5-5.5-.5-2.8-.1-2.5-4.5.3-4.3 0 0 8.7.7 13.9.7 5.5 0 14-.7 14-.7 2.8-.2 3.2 4 .3 4.3 0 0-2.8.4-6 .5l19 56.5 5.2-17.5c2.3-7.3 4-12.5 4-17z"
       id="path1" />
    <path
       d="m62.2 65.9-15.8 45.8a52.6 52.6 0 0 0 32.3-.9l-.4-.7zM107.4 36a49.6 49.6 0 0 1-3.6 24.2l-16.1 46.5A52.5 52.5 0 0 0 107.4 36z"
       id="path2" />
    <path
       d="M61.3 0a61.3 61.3 0 1 0 .1 122.7A61.3 61.3 0 0 0 61.3 0zm0 119.7a58.5 58.5 0 1 1 .1-117 58.5 58.5 0 0 1-.1 117z"
       id="path3" />
  </g>
</svg>
